<?xml version="1.0" encoding="utf-8" standalone="no"?>
<!DOCTYPE svg PUBLIC "-//W3C//DTD SVG 1.1//EN"
  "http://www.w3.org/Graphics/SVG/1.1/DTD/svg11.dtd">
<svg xmlns:xlink="http://www.w3.org/1999/xlink" width="460.8pt" height="345.6pt" viewBox="0 0 460.8 345.6" xmlns="http://www.w3.org/2000/svg" version="1.1">
 <metadata>
  <rdf:RDF xmlns:dc="http://purl.org/dc/elements/1.1/" xmlns:cc="http://creativecommons.org/ns#" xmlns:rdf="http://www.w3.org/1999/02/22-rdf-syntax-ns#">
   <cc:Work>
    <dc:type rdf:resource="http://purl.org/dc/dcmitype/StillImage"/>
    <dc:date>2024-06-12T16:36:01.127691</dc:date>
    <dc:format>image/svg+xml</dc:format>
    <dc:creator>
     <cc:Agent>
      <dc:title>Matplotlib v3.8.4, https://matplotlib.org/</dc:title>
     </cc:Agent>
    </dc:creator>
   </cc:Work>
  </rdf:RDF>
 </metadata>
 <defs>
  <style type="text/css">*{stroke-linejoin: round; stroke-linecap: butt}</style>
 </defs>
 <g id="figure_1">
  <g id="axes_1">
   <g id="matplotlib.axis_1">
    <g id="xtick_1">
     <g id="line2d_1">
      <path d="M 111.871479 318.053531 
L 111.871479 36.337219 
" clip-path="url(#p57c66cde60)" style="fill: none; stroke: #e5e5e5; stroke-linecap: square"/>
     </g>
     <g id="text_1">
      <!-- 2005 -->
      <g style="fill: #4d4d4d" transform="translate(102.084229 324.366156) scale(0.088 -0.088)">
       <defs>
        <path id="Helvetica-32" d="M 200 0 
Q 231 578 439 1006 
Q 647 1434 1250 1784 
L 1850 2131 
Q 2253 2366 2416 2531 
Q 2672 2791 2672 3125 
Q 2672 3516 2437 3745 
Q 2203 3975 1813 3975 
Q 1234 3975 1013 3538 
Q 894 3303 881 2888 
L 309 2888 
Q 319 3472 525 3841 
Q 891 4491 1816 4491 
Q 2584 4491 2939 4075 
Q 3294 3659 3294 3150 
Q 3294 2613 2916 2231 
Q 2697 2009 2131 1694 
L 1703 1456 
Q 1397 1288 1222 1134 
Q 909 863 828 531 
L 3272 531 
L 3272 0 
L 200 0 
z
" transform="scale(0.015625)"/>
        <path id="Helvetica-30" d="M 1731 4475 
Q 2600 4475 2988 3759 
Q 3288 3206 3288 2244 
Q 3288 1331 3016 734 
Q 2622 -122 1728 -122 
Q 922 -122 528 578 
Q 200 1163 200 2147 
Q 200 2909 397 3456 
Q 766 4475 1731 4475 
z
M 1725 391 
Q 2163 391 2422 778 
Q 2681 1166 2681 2222 
Q 2681 2984 2493 3476 
Q 2306 3969 1766 3969 
Q 1269 3969 1039 3501 
Q 809 3034 809 2125 
Q 809 1441 956 1025 
Q 1181 391 1725 391 
z
" transform="scale(0.015625)"/>
        <path id="Helvetica-35" d="M 791 1141 
Q 847 659 1238 475 
Q 1438 381 1700 381 
Q 2200 381 2440 700 
Q 2681 1019 2681 1406 
Q 2681 1875 2395 2131 
Q 2109 2388 1709 2388 
Q 1419 2388 1211 2275 
Q 1003 2163 856 1963 
L 369 1991 
L 709 4400 
L 3034 4400 
L 3034 3856 
L 1131 3856 
L 941 2613 
Q 1097 2731 1238 2791 
Q 1488 2894 1816 2894 
Q 2431 2894 2859 2497 
Q 3288 2100 3288 1491 
Q 3288 856 2895 371 
Q 2503 -113 1644 -113 
Q 1097 -113 676 195 
Q 256 503 206 1141 
L 791 1141 
z
" transform="scale(0.015625)"/>
       </defs>
       <use xlink:href="#Helvetica-32"/>
       <use xlink:href="#Helvetica-30" x="55.615234"/>
       <use xlink:href="#Helvetica-30" x="111.230469"/>
       <use xlink:href="#Helvetica-35" x="166.845703"/>
      </g>
     </g>
    </g>
    <g id="xtick_2">
     <g id="line2d_2">
      <path d="M 213.440954 318.053531 
L 213.440954 36.337219 
" clip-path="url(#p57c66cde60)" style="fill: none; stroke: #e5e5e5; stroke-linecap: square"/>
     </g>
     <g id="text_2">
      <!-- 2010 -->
      <g style="fill: #4d4d4d" transform="translate(203.653704 324.366156) scale(0.088 -0.088)">
       <defs>
        <path id="Helvetica-31" d="M 613 3169 
L 613 3600 
Q 1222 3659 1462 3798 
Q 1703 3938 1822 4456 
L 2266 4456 
L 2266 0 
L 1666 0 
L 1666 3169 
L 613 3169 
z
" transform="scale(0.015625)"/>
       </defs>
       <use xlink:href="#Helvetica-32"/>
       <use xlink:href="#Helvetica-30" x="55.615234"/>
       <use xlink:href="#Helvetica-31" x="111.230469"/>
       <use xlink:href="#Helvetica-30" x="166.845703"/>
      </g>
     </g>
    </g>
    <g id="xtick_3">
     <g id="line2d_3">
      <path d="M 315.01043 318.053531 
L 315.01043 36.337219 
" clip-path="url(#p57c66cde60)" style="fill: none; stroke: #e5e5e5; stroke-linecap: square"/>
     </g>
     <g id="text_3">
      <!-- 2015 -->
      <g style="fill: #4d4d4d" transform="translate(305.22318 324.366156) scale(0.088 -0.088)">
       <use xlink:href="#Helvetica-32"/>
       <use xlink:href="#Helvetica-30" x="55.615234"/>
       <use xlink:href="#Helvetica-31" x="111.230469"/>
       <use xlink:href="#Helvetica-35" x="166.845703"/>
      </g>
     </g>
    </g>
    <g id="xtick_4">
     <g id="line2d_4">
      <path d="M 416.579905 318.053531 
L 416.579905 36.337219 
" clip-path="url(#p57c66cde60)" style="fill: none; stroke: #e5e5e5; stroke-linecap: square"/>
     </g>
     <g id="text_4">
      <!-- 2020 -->
      <g style="fill: #4d4d4d" transform="translate(406.792655 324.366156) scale(0.088 -0.088)">
       <use xlink:href="#Helvetica-32"/>
       <use xlink:href="#Helvetica-30" x="55.615234"/>
       <use xlink:href="#Helvetica-32" x="111.230469"/>
       <use xlink:href="#Helvetica-30" x="166.845703"/>
      </g>
     </g>
    </g>
    <g id="xtick_5">
     <g id="line2d_5">
      <path d="M 61.086742 318.053531 
L 61.086742 36.337219 
" clip-path="url(#p57c66cde60)" style="fill: none; stroke: #fafafa; stroke-width: 0.5; stroke-linecap: square"/>
     </g>
    </g>
    <g id="xtick_6">
     <g id="line2d_6">
      <path d="M 162.656217 318.053531 
L 162.656217 36.337219 
" clip-path="url(#p57c66cde60)" style="fill: none; stroke: #fafafa; stroke-width: 0.5; stroke-linecap: square"/>
     </g>
    </g>
    <g id="xtick_7">
     <g id="line2d_7">
      <path d="M 264.225692 318.053531 
L 264.225692 36.337219 
" clip-path="url(#p57c66cde60)" style="fill: none; stroke: #fafafa; stroke-width: 0.5; stroke-linecap: square"/>
     </g>
    </g>
    <g id="xtick_8">
     <g id="line2d_8">
      <path d="M 365.795167 318.053531 
L 365.795167 36.337219 
" clip-path="url(#p57c66cde60)" style="fill: none; stroke: #fafafa; stroke-width: 0.5; stroke-linecap: square"/>
     </g>
    </g>
   </g>
   <g id="matplotlib.axis_2">
    <g id="ytick_1">
     <g id="line2d_9">
      <path d="M 31.631594 303.191239 
L 456.192 303.191239 
" clip-path="url(#p57c66cde60)" style="fill: none; stroke: #e5e5e5; stroke-linecap: square"/>
     </g>
     <g id="text_5">
      <!-- 0.9 -->
      <g style="fill: #4d4d4d" transform="translate(19.399594 306.347551) scale(0.088 -0.088)">
       <defs>
        <path id="Helvetica-2e" d="M 547 681 
L 1200 681 
L 1200 0 
L 547 0 
L 547 681 
z
" transform="scale(0.015625)"/>
        <path id="Helvetica-39" d="M 850 1081 
Q 875 616 1209 438 
Q 1381 344 1597 344 
Q 2000 344 2284 680 
Q 2569 1016 2688 2044 
Q 2500 1747 2223 1626 
Q 1947 1506 1628 1506 
Q 981 1506 604 1909 
Q 228 2313 228 2947 
Q 228 3556 600 4018 
Q 972 4481 1697 4481 
Q 2675 4481 3047 3600 
Q 3253 3116 3253 2388 
Q 3253 1566 3006 931 
Q 2597 -125 1619 -125 
Q 963 -125 622 219 
Q 281 563 281 1081 
L 850 1081 
z
M 1703 2000 
Q 2038 2000 2314 2220 
Q 2591 2441 2591 2991 
Q 2591 3484 2342 3726 
Q 2094 3969 1709 3969 
Q 1297 3969 1055 3692 
Q 813 3416 813 2953 
Q 813 2516 1025 2258 
Q 1238 2000 1703 2000 
z
" transform="scale(0.015625)"/>
       </defs>
       <use xlink:href="#Helvetica-30"/>
       <use xlink:href="#Helvetica-2e" x="55.615234"/>
       <use xlink:href="#Helvetica-39" x="83.398438"/>
      </g>
     </g>
    </g>
    <g id="ytick_2">
     <g id="line2d_10">
      <path d="M 31.631594 228.581512 
L 456.192 228.581512 
" clip-path="url(#p57c66cde60)" style="fill: none; stroke: #e5e5e5; stroke-linecap: square"/>
     </g>
     <g id="text_6">
      <!-- 1.0 -->
      <g style="fill: #4d4d4d" transform="translate(19.399594 231.737824) scale(0.088 -0.088)">
       <use xlink:href="#Helvetica-31"/>
       <use xlink:href="#Helvetica-2e" x="55.615234"/>
       <use xlink:href="#Helvetica-30" x="83.398438"/>
      </g>
     </g>
    </g>
    <g id="ytick_3">
     <g id="line2d_11">
      <path d="M 31.631594 153.971785 
L 456.192 153.971785 
" clip-path="url(#p57c66cde60)" style="fill: none; stroke: #e5e5e5; stroke-linecap: square"/>
     </g>
     <g id="text_7">
      <!-- 1.1 -->
      <g style="fill: #4d4d4d" transform="translate(19.399594 157.128098) scale(0.088 -0.088)">
       <use xlink:href="#Helvetica-31"/>
       <use xlink:href="#Helvetica-2e" x="55.615234"/>
       <use xlink:href="#Helvetica-31" x="83.398438"/>
      </g>
     </g>
    </g>
    <g id="ytick_4">
     <g id="line2d_12">
      <path d="M 31.631594 79.362058 
L 456.192 79.362058 
" clip-path="url(#p57c66cde60)" style="fill: none; stroke: #e5e5e5; stroke-linecap: square"/>
     </g>
     <g id="text_8">
      <!-- 1.2 -->
      <g style="fill: #4d4d4d" transform="translate(19.399594 82.518371) scale(0.088 -0.088)">
       <use xlink:href="#Helvetica-31"/>
       <use xlink:href="#Helvetica-2e" x="55.615234"/>
       <use xlink:href="#Helvetica-32" x="83.398438"/>
      </g>
     </g>
    </g>
    <g id="ytick_5">
     <g id="line2d_13">
      <path d="M 31.631594 265.886375 
L 456.192 265.886375 
" clip-path="url(#p57c66cde60)" style="fill: none; stroke: #fafafa; stroke-width: 0.5; stroke-linecap: square"/>
     </g>
    </g>
    <g id="ytick_6">
     <g id="line2d_14">
      <path d="M 31.631594 191.276649 
L 456.192 191.276649 
" clip-path="url(#p57c66cde60)" style="fill: none; stroke: #fafafa; stroke-width: 0.5; stroke-linecap: square"/>
     </g>
    </g>
    <g id="ytick_7">
     <g id="line2d_15">
      <path d="M 31.631594 116.666922 
L 456.192 116.666922 
" clip-path="url(#p57c66cde60)" style="fill: none; stroke: #fafafa; stroke-width: 0.5; stroke-linecap: square"/>
     </g>
    </g>
    <g id="ytick_8">
     <g id="line2d_16">
      <path d="M 31.631594 42.057195 
L 456.192 42.057195 
" clip-path="url(#p57c66cde60)" style="fill: none; stroke: #fafafa; stroke-width: 0.5; stroke-linecap: square"/>
     </g>
    </g>
   </g>
   <g id="line2d_17">
    <path d="M 50.929794 305.248244 
L 71.243689 235.172222 
L 91.557584 200.47161 
L 111.871479 239.80526 
L 132.185374 217.658345 
L 152.499269 191.493733 
L 172.813164 232.370738 
L 193.127059 256.43681 
L 213.440954 204.91554 
L 233.754849 242.492995 
L 254.068744 112.01568 
L 274.382639 183.873669 
L 294.696534 277.178834 
L 315.01043 128.173025 
L 335.324325 160.789226 
L 355.63822 255.011495 
L 375.952115 137.070092 
L 396.26601 265.321335 
L 416.579905 77.217209 
L 436.8938 49.142506 
" clip-path="url(#p57c66cde60)" style="fill: none; stroke: #0000ff; stroke-width: 1.772454"/>
   </g>
   <g id="line2d_18">
    <path d="M 50.929794 260.012845 
L 71.243689 253.54759 
L 91.557584 247.082336 
L 111.871479 240.617082 
L 132.185374 234.151827 
L 152.499269 227.686573 
L 172.813164 221.221319 
L 193.127059 214.756064 
L 213.440954 208.29081 
L 233.754849 201.825556 
L 254.068744 195.360301 
L 274.382639 188.895047 
L 294.696534 182.429793 
L 315.01043 175.964538 
L 335.324325 169.499284 
L 355.63822 163.03403 
L 375.952115 156.568775 
L 396.26601 150.103521 
L 416.579905 143.638267 
L 436.8938 137.173012 
" clip-path="url(#p57c66cde60)" style="fill: none; stroke-dasharray: 6.558079,2.835926; stroke-dashoffset: 0; stroke: #ff0000; stroke-width: 1.772454; stroke-linejoin: miter"/>
   </g>
   <g id="LineCollection_1">
    <path d="M 31.631594 228.581512 
L 456.192 228.581512 
" clip-path="url(#p57c66cde60)" style="fill: none; stroke-dasharray: 3.27904,1.417963; stroke-dashoffset: 0; stroke: #008000; stroke-width: 0.886227"/>
   </g>
  </g>
  <g id="text_9">
   <!-- Female PPR by Year -->
   <g transform="translate(31.631594 14.107875) scale(0.132 -0.132)">
    <defs>
     <path id="Helvetica-46" d="M 547 4591 
L 3731 4591 
L 3731 4028 
L 1169 4028 
L 1169 2634 
L 3422 2634 
L 3422 2088 
L 1169 2088 
L 1169 0 
L 547 0 
L 547 4591 
z
" transform="scale(0.015625)"/>
     <path id="Helvetica-65" d="M 1806 3422 
Q 2163 3422 2497 3255 
Q 2831 3088 3006 2822 
Q 3175 2569 3231 2231 
Q 3281 2000 3281 1494 
L 828 1494 
Q 844 984 1069 676 
Q 1294 369 1766 369 
Q 2206 369 2469 659 
Q 2619 828 2681 1050 
L 3234 1050 
Q 3213 866 3089 639 
Q 2966 413 2813 269 
Q 2556 19 2178 -69 
Q 1975 -119 1719 -119 
Q 1094 -119 659 336 
Q 225 791 225 1609 
Q 225 2416 662 2919 
Q 1100 3422 1806 3422 
z
M 2703 1941 
Q 2669 2306 2544 2525 
Q 2313 2931 1772 2931 
Q 1384 2931 1121 2651 
Q 859 2372 844 1941 
L 2703 1941 
z
M 1753 3428 
L 1753 3428 
z
" transform="scale(0.015625)"/>
     <path id="Helvetica-6d" d="M 413 3347 
L 969 3347 
L 969 2872 
Q 1169 3119 1331 3231 
Q 1609 3422 1963 3422 
Q 2363 3422 2606 3225 
Q 2744 3113 2856 2894 
Q 3044 3163 3297 3292 
Q 3550 3422 3866 3422 
Q 4541 3422 4784 2934 
Q 4916 2672 4916 2228 
L 4916 0 
L 4331 0 
L 4331 2325 
Q 4331 2659 4164 2784 
Q 3997 2909 3756 2909 
Q 3425 2909 3186 2687 
Q 2947 2466 2947 1947 
L 2947 0 
L 2375 0 
L 2375 2184 
Q 2375 2525 2294 2681 
Q 2166 2916 1816 2916 
Q 1497 2916 1236 2669 
Q 975 2422 975 1775 
L 975 0 
L 413 0 
L 413 3347 
z
" transform="scale(0.015625)"/>
     <path id="Helvetica-61" d="M 844 891 
Q 844 647 1022 506 
Q 1200 366 1444 366 
Q 1741 366 2019 503 
Q 2488 731 2488 1250 
L 2488 1703 
Q 2384 1638 2221 1594 
Q 2059 1550 1903 1531 
L 1563 1488 
Q 1256 1447 1103 1359 
Q 844 1213 844 891 
z
M 2206 2028 
Q 2400 2053 2466 2191 
Q 2503 2266 2503 2406 
Q 2503 2694 2298 2823 
Q 2094 2953 1713 2953 
Q 1272 2953 1088 2716 
Q 984 2584 953 2325 
L 428 2325 
Q 444 2944 830 3186 
Q 1216 3428 1725 3428 
Q 2316 3428 2684 3203 
Q 3050 2978 3050 2503 
L 3050 575 
Q 3050 488 3086 434 
Q 3122 381 3238 381 
Q 3275 381 3322 386 
Q 3369 391 3422 400 
L 3422 -16 
Q 3291 -53 3222 -62 
Q 3153 -72 3034 -72 
Q 2744 -72 2613 134 
Q 2544 244 2516 444 
Q 2344 219 2022 53 
Q 1700 -113 1313 -113 
Q 847 -113 551 170 
Q 256 453 256 878 
Q 256 1344 547 1600 
Q 838 1856 1309 1916 
L 2206 2028 
z
M 1741 3428 
L 1741 3428 
z
" transform="scale(0.015625)"/>
     <path id="Helvetica-6c" d="M 428 4591 
L 991 4591 
L 991 0 
L 428 0 
L 428 4591 
z
" transform="scale(0.015625)"/>
     <path id="Helvetica-20" transform="scale(0.015625)"/>
     <path id="Helvetica-50" d="M 547 4591 
L 2613 4591 
Q 3225 4591 3600 4245 
Q 3975 3900 3975 3275 
Q 3975 2738 3640 2339 
Q 3306 1941 2613 1941 
L 1169 1941 
L 1169 0 
L 547 0 
L 547 4591 
z
M 3347 3272 
Q 3347 3778 2972 3959 
Q 2766 4056 2406 4056 
L 1169 4056 
L 1169 2466 
L 2406 2466 
Q 2825 2466 3086 2644 
Q 3347 2822 3347 3272 
z
" transform="scale(0.015625)"/>
     <path id="Helvetica-52" d="M 2622 2488 
Q 3059 2488 3314 2663 
Q 3569 2838 3569 3294 
Q 3569 3784 3213 3963 
Q 3022 4056 2703 4056 
L 1184 4056 
L 1184 2488 
L 2622 2488 
z
M 563 4591 
L 2688 4591 
Q 3213 4591 3553 4438 
Q 4200 4144 4200 3353 
Q 4200 2941 4029 2678 
Q 3859 2416 3553 2256 
Q 3822 2147 3958 1969 
Q 4094 1791 4109 1391 
L 4131 775 
Q 4141 513 4175 384 
Q 4231 166 4375 103 
L 4375 0 
L 3613 0 
Q 3581 59 3562 153 
Q 3544 247 3531 516 
L 3494 1281 
Q 3472 1731 3159 1884 
Q 2981 1969 2600 1969 
L 1184 1969 
L 1184 0 
L 563 0 
L 563 4591 
z
" transform="scale(0.015625)"/>
     <path id="Helvetica-62" d="M 369 4606 
L 916 4606 
L 916 2941 
Q 1100 3181 1356 3307 
Q 1613 3434 1913 3434 
Q 2538 3434 2927 3004 
Q 3316 2575 3316 1738 
Q 3316 944 2931 419 
Q 2547 -106 1866 -106 
Q 1484 -106 1222 78 
Q 1066 188 888 428 
L 888 0 
L 369 0 
L 369 4606 
z
M 1831 391 
Q 2288 391 2514 753 
Q 2741 1116 2741 1709 
Q 2741 2238 2514 2584 
Q 2288 2931 1847 2931 
Q 1463 2931 1173 2647 
Q 884 2363 884 1709 
Q 884 1238 1003 944 
Q 1225 391 1831 391 
z
" transform="scale(0.015625)"/>
     <path id="Helvetica-79" d="M 2503 3347 
L 3125 3347 
Q 3006 3025 2597 1878 
Q 2291 1016 2084 472 
Q 1597 -809 1397 -1090 
Q 1197 -1372 709 -1372 
Q 591 -1372 527 -1362 
Q 463 -1353 369 -1328 
L 369 -816 
Q 516 -856 581 -865 
Q 647 -875 697 -875 
Q 853 -875 926 -823 
Q 1000 -772 1050 -697 
Q 1066 -672 1162 -440 
Q 1259 -209 1303 -97 
L 66 3347 
L 703 3347 
L 1600 622 
L 2503 3347 
z
M 1597 3428 
L 1597 3428 
z
" transform="scale(0.015625)"/>
     <path id="Helvetica-59" d="M 131 4591 
L 856 4591 
L 2175 2384 
L 3494 4591 
L 4222 4591 
L 2488 1850 
L 2488 0 
L 1866 0 
L 1866 1850 
L 131 4591 
z
M 2184 4591 
L 2184 4591 
z
" transform="scale(0.015625)"/>
     <path id="Helvetica-72" d="M 428 3347 
L 963 3347 
L 963 2769 
Q 1028 2938 1284 3180 
Q 1541 3422 1875 3422 
Q 1891 3422 1928 3419 
Q 1966 3416 2056 3406 
L 2056 2813 
Q 2006 2822 1964 2825 
Q 1922 2828 1872 2828 
Q 1447 2828 1219 2554 
Q 991 2281 991 1925 
L 991 0 
L 428 0 
L 428 3347 
z
" transform="scale(0.015625)"/>
    </defs>
    <use xlink:href="#Helvetica-46"/>
    <use xlink:href="#Helvetica-65" x="61.083984"/>
    <use xlink:href="#Helvetica-6d" x="116.699219"/>
    <use xlink:href="#Helvetica-61" x="200"/>
    <use xlink:href="#Helvetica-6c" x="255.615234"/>
    <use xlink:href="#Helvetica-65" x="277.832031"/>
    <use xlink:href="#Helvetica-20" x="333.447266"/>
    <use xlink:href="#Helvetica-50" x="361.230469"/>
    <use xlink:href="#Helvetica-50" x="427.929688"/>
    <use xlink:href="#Helvetica-52" x="494.628906"/>
    <use xlink:href="#Helvetica-20" x="566.845703"/>
    <use xlink:href="#Helvetica-62" x="594.628906"/>
    <use xlink:href="#Helvetica-79" x="650.244141"/>
    <use xlink:href="#Helvetica-20" x="700.244141"/>
    <use xlink:href="#Helvetica-59" x="728.027344"/>
    <use xlink:href="#Helvetica-65" x="794.726562"/>
    <use xlink:href="#Helvetica-61" x="850.341797"/>
    <use xlink:href="#Helvetica-72" x="905.957031"/>
   </g>
  </g>
  <g id="text_10">
   <!-- p-value: 0.01098 -->
   <g transform="translate(31.631594 29.436406) scale(0.11 -0.11)">
    <defs>
     <path id="Helvetica-70" d="M 1825 378 
Q 2219 378 2480 708 
Q 2741 1038 2741 1694 
Q 2741 2094 2625 2381 
Q 2406 2934 1825 2934 
Q 1241 2934 1025 2350 
Q 909 2038 909 1556 
Q 909 1169 1025 897 
Q 1244 378 1825 378 
z
M 369 3331 
L 916 3331 
L 916 2888 
Q 1084 3116 1284 3241 
Q 1569 3428 1953 3428 
Q 2522 3428 2919 2992 
Q 3316 2556 3316 1747 
Q 3316 653 2744 184 
Q 2381 -113 1900 -113 
Q 1522 -113 1266 53 
Q 1116 147 931 375 
L 931 -1334 
L 369 -1334 
L 369 3331 
z
" transform="scale(0.015625)"/>
     <path id="Helvetica-2d" d="M 266 2072 
L 1834 2072 
L 1834 1494 
L 266 1494 
L 266 2072 
z
" transform="scale(0.015625)"/>
     <path id="Helvetica-76" d="M 688 3347 
L 1581 622 
L 2516 3347 
L 3131 3347 
L 1869 0 
L 1269 0 
L 34 3347 
L 688 3347 
z
" transform="scale(0.015625)"/>
     <path id="Helvetica-75" d="M 975 3347 
L 975 1125 
Q 975 869 1056 706 
Q 1206 406 1616 406 
Q 2203 406 2416 931 
Q 2531 1213 2531 1703 
L 2531 3347 
L 3094 3347 
L 3094 0 
L 2563 0 
L 2569 494 
Q 2459 303 2297 172 
Q 1975 -91 1516 -91 
Q 800 -91 541 388 
Q 400 644 400 1072 
L 400 3347 
L 975 3347 
z
M 1747 3428 
L 1747 3428 
z
" transform="scale(0.015625)"/>
     <path id="Helvetica-3a" d="M 709 3303 
L 1363 3303 
L 1363 2622 
L 709 2622 
L 709 3303 
z
M 709 681 
L 1363 681 
L 1363 0 
L 709 0 
L 709 681 
z
" transform="scale(0.015625)"/>
     <path id="Helvetica-38" d="M 1741 2600 
Q 2113 2600 2322 2808 
Q 2531 3016 2531 3303 
Q 2531 3553 2331 3762 
Q 2131 3972 1722 3972 
Q 1316 3972 1134 3762 
Q 953 3553 953 3272 
Q 953 2956 1187 2778 
Q 1422 2600 1741 2600 
z
M 1775 384 
Q 2166 384 2423 595 
Q 2681 806 2681 1225 
Q 2681 1659 2415 1884 
Q 2150 2109 1734 2109 
Q 1331 2109 1076 1879 
Q 822 1650 822 1244 
Q 822 894 1055 639 
Q 1288 384 1775 384 
z
M 975 2384 
Q 741 2484 609 2619 
Q 363 2869 363 3269 
Q 363 3769 725 4128 
Q 1088 4488 1753 4488 
Q 2397 4488 2762 4148 
Q 3128 3809 3128 3356 
Q 3128 2938 2916 2678 
Q 2797 2531 2547 2391 
Q 2825 2263 2984 2097 
Q 3281 1784 3281 1284 
Q 3281 694 2884 283 
Q 2488 -128 1763 -128 
Q 1109 -128 657 226 
Q 206 581 206 1256 
Q 206 1653 400 1942 
Q 594 2231 975 2384 
z
" transform="scale(0.015625)"/>
    </defs>
    <use xlink:href="#Helvetica-70"/>
    <use xlink:href="#Helvetica-2d" x="55.615234"/>
    <use xlink:href="#Helvetica-76" x="88.916016"/>
    <use xlink:href="#Helvetica-61" x="138.916016"/>
    <use xlink:href="#Helvetica-6c" x="194.53125"/>
    <use xlink:href="#Helvetica-75" x="216.748047"/>
    <use xlink:href="#Helvetica-65" x="272.363281"/>
    <use xlink:href="#Helvetica-3a" x="327.978516"/>
    <use xlink:href="#Helvetica-20" x="355.761719"/>
    <use xlink:href="#Helvetica-30" x="383.544922"/>
    <use xlink:href="#Helvetica-2e" x="439.160156"/>
    <use xlink:href="#Helvetica-30" x="466.943359"/>
    <use xlink:href="#Helvetica-31" x="522.558594"/>
    <use xlink:href="#Helvetica-30" x="578.173828"/>
    <use xlink:href="#Helvetica-39" x="633.789062"/>
    <use xlink:href="#Helvetica-38" x="689.404297"/>
   </g>
  </g>
  <g id="text_11">
   <!-- Year -->
   <g transform="translate(232.294766 338.699187) scale(0.11 -0.11)">
    <use xlink:href="#Helvetica-59"/>
    <use xlink:href="#Helvetica-65" x="66.699219"/>
    <use xlink:href="#Helvetica-61" x="122.314453"/>
    <use xlink:href="#Helvetica-72" x="177.929688"/>
   </g>
  </g>
  <g id="text_12">
   <!-- Female PPR -->
   <g transform="translate(12.498781 208.370922) rotate(-90) scale(0.11 -0.11)">
    <use xlink:href="#Helvetica-46"/>
    <use xlink:href="#Helvetica-65" x="61.083984"/>
    <use xlink:href="#Helvetica-6d" x="116.699219"/>
    <use xlink:href="#Helvetica-61" x="200"/>
    <use xlink:href="#Helvetica-6c" x="255.615234"/>
    <use xlink:href="#Helvetica-65" x="277.832031"/>
    <use xlink:href="#Helvetica-20" x="333.447266"/>
    <use xlink:href="#Helvetica-50" x="361.230469"/>
    <use xlink:href="#Helvetica-50" x="427.929688"/>
    <use xlink:href="#Helvetica-52" x="494.628906"/>
   </g>
  </g>
 </g>
 <defs>
  <clipPath id="p57c66cde60">
   <rect x="31.631594" y="36.337219" width="424.560406" height="281.716312"/>
  </clipPath>
 </defs>
</svg>
