<?xml version="1.0" encoding="utf-8" standalone="no"?>
<!DOCTYPE svg PUBLIC "-//W3C//DTD SVG 1.1//EN"
  "http://www.w3.org/Graphics/SVG/1.1/DTD/svg11.dtd">
<svg xmlns:xlink="http://www.w3.org/1999/xlink" width="460.8pt" height="345.6pt" viewBox="0 0 460.8 345.6" xmlns="http://www.w3.org/2000/svg" version="1.1">
 <metadata>
  <rdf:RDF xmlns:dc="http://purl.org/dc/elements/1.1/" xmlns:cc="http://creativecommons.org/ns#" xmlns:rdf="http://www.w3.org/1999/02/22-rdf-syntax-ns#">
   <cc:Work>
    <dc:type rdf:resource="http://purl.org/dc/dcmitype/StillImage"/>
    <dc:date>2024-06-12T16:36:24.189805</dc:date>
    <dc:format>image/svg+xml</dc:format>
    <dc:creator>
     <cc:Agent>
      <dc:title>Matplotlib v3.8.4, https://matplotlib.org/</dc:title>
     </cc:Agent>
    </dc:creator>
   </cc:Work>
  </rdf:RDF>
 </metadata>
 <defs>
  <style type="text/css">*{stroke-linejoin: round; stroke-linecap: butt}</style>
 </defs>
 <g id="figure_1">
  <g id="patch_1">
   <path d="M 0 345.6 
L 460.8 345.6 
L 460.8 0 
L 0 0 
z
" style="fill: #ffffff; stroke: #ffffff; stroke-linejoin: miter"/>
  </g>
  <g id="axes_1">
   <g id="patch_2">
    <path d="M 41.404125 313.212437 
L 374.952375 313.212437 
L 374.952375 21.636375 
L 41.404125 21.636375 
z
" style="fill: #ebebeb"/>
   </g>
   <g id="matplotlib.axis_1">
    <g id="xtick_1">
     <g id="line2d_1">
      <path d="M 103.944422 313.212437 
L 103.944422 21.636375 
" clip-path="url(#p8c82f24efc)" style="fill: none; stroke: #ffffff; stroke-linecap: square"/>
     </g>
     <g id="line2d_2">
      <path d="M 103.944422 313.212437 
" style="fill: none; stroke: #333333; stroke-width: 1.5; stroke-linecap: square"/>
      <defs>
       <path id="m077dc8bfa4" d="M 0 0 
L 0 2.75 
" style="stroke: #333333"/>
      </defs>
      <g>
       <use xlink:href="#m077dc8bfa4" x="103.944422" y="313.212437" style="fill: #333333; stroke: #333333"/>
      </g>
     </g>
     <g id="text_1">
      <!-- NIH -->
      <g style="fill: #4d4d4d" transform="translate(96.366797 324.275062) scale(0.088 -0.088)">
       <defs>
        <path id="Helvetica-4e" d="M 488 4591 
L 1222 4591 
L 3541 872 
L 3541 4591 
L 4131 4591 
L 4131 0 
L 3434 0 
L 1081 3716 
L 1081 0 
L 488 0 
L 488 4591 
z
M 2269 4591 
L 2269 4591 
z
" transform="scale(0.015625)"/>
        <path id="Helvetica-49" d="M 628 4591 
L 1256 4591 
L 1256 0 
L 628 0 
L 628 4591 
z
" transform="scale(0.015625)"/>
        <path id="Helvetica-48" d="M 503 4591 
L 1131 4591 
L 1131 2694 
L 3519 2694 
L 3519 4591 
L 4147 4591 
L 4147 0 
L 3519 0 
L 3519 2147 
L 1131 2147 
L 1131 0 
L 503 0 
L 503 4591 
z
" transform="scale(0.015625)"/>
       </defs>
       <use xlink:href="#Helvetica-4e"/>
       <use xlink:href="#Helvetica-49" x="72.216797"/>
       <use xlink:href="#Helvetica-48" x="100"/>
      </g>
     </g>
    </g>
    <g id="xtick_2">
     <g id="line2d_3">
      <path d="M 208.17825 313.212437 
L 208.17825 21.636375 
" clip-path="url(#p8c82f24efc)" style="fill: none; stroke: #ffffff; stroke-linecap: square"/>
     </g>
     <g id="line2d_4">
      <path d="M 208.17825 313.212437 
" style="fill: none; stroke: #333333; stroke-width: 1.5; stroke-linecap: square"/>
      <g>
       <use xlink:href="#m077dc8bfa4" x="208.17825" y="313.212437" style="fill: #333333; stroke: #333333"/>
      </g>
     </g>
     <g id="text_2">
      <!-- Other -->
      <g style="fill: #4d4d4d" transform="translate(197.174813 324.275062) scale(0.088 -0.088)">
       <defs>
        <path id="Helvetica-4f" d="M 2469 4716 
Q 3684 4716 4269 3934 
Q 4725 3325 4725 2375 
Q 4725 1347 4203 666 
Q 3591 -134 2456 -134 
Q 1397 -134 791 566 
Q 250 1241 250 2272 
Q 250 3203 713 3866 
Q 1306 4716 2469 4716 
z
M 2531 422 
Q 3353 422 3720 1011 
Q 4088 1600 4088 2366 
Q 4088 3175 3664 3669 
Q 3241 4163 2506 4163 
Q 1794 4163 1344 3673 
Q 894 3184 894 2231 
Q 894 1469 1280 945 
Q 1666 422 2531 422 
z
M 2488 4716 
L 2488 4716 
z
" transform="scale(0.015625)"/>
        <path id="Helvetica-74" d="M 525 4281 
L 1094 4281 
L 1094 3347 
L 1628 3347 
L 1628 2888 
L 1094 2888 
L 1094 703 
Q 1094 528 1213 469 
Q 1278 434 1431 434 
Q 1472 434 1519 436 
Q 1566 438 1628 444 
L 1628 0 
Q 1531 -28 1426 -40 
Q 1322 -53 1200 -53 
Q 806 -53 665 148 
Q 525 350 525 672 
L 525 2888 
L 72 2888 
L 72 3347 
L 525 3347 
L 525 4281 
z
" transform="scale(0.015625)"/>
        <path id="Helvetica-68" d="M 413 4606 
L 975 4606 
L 975 2894 
Q 1175 3147 1334 3250 
Q 1606 3428 2013 3428 
Q 2741 3428 3000 2919 
Q 3141 2641 3141 2147 
L 3141 0 
L 2563 0 
L 2563 2109 
Q 2563 2478 2469 2650 
Q 2316 2925 1894 2925 
Q 1544 2925 1259 2684 
Q 975 2444 975 1775 
L 975 0 
L 413 0 
L 413 4606 
z
" transform="scale(0.015625)"/>
        <path id="Helvetica-65" d="M 1806 3422 
Q 2163 3422 2497 3255 
Q 2831 3088 3006 2822 
Q 3175 2569 3231 2231 
Q 3281 2000 3281 1494 
L 828 1494 
Q 844 984 1069 676 
Q 1294 369 1766 369 
Q 2206 369 2469 659 
Q 2619 828 2681 1050 
L 3234 1050 
Q 3213 866 3089 639 
Q 2966 413 2813 269 
Q 2556 19 2178 -69 
Q 1975 -119 1719 -119 
Q 1094 -119 659 336 
Q 225 791 225 1609 
Q 225 2416 662 2919 
Q 1100 3422 1806 3422 
z
M 2703 1941 
Q 2669 2306 2544 2525 
Q 2313 2931 1772 2931 
Q 1384 2931 1121 2651 
Q 859 2372 844 1941 
L 2703 1941 
z
M 1753 3428 
L 1753 3428 
z
" transform="scale(0.015625)"/>
        <path id="Helvetica-72" d="M 428 3347 
L 963 3347 
L 963 2769 
Q 1028 2938 1284 3180 
Q 1541 3422 1875 3422 
Q 1891 3422 1928 3419 
Q 1966 3416 2056 3406 
L 2056 2813 
Q 2006 2822 1964 2825 
Q 1922 2828 1872 2828 
Q 1447 2828 1219 2554 
Q 991 2281 991 1925 
L 991 0 
L 428 0 
L 428 3347 
z
" transform="scale(0.015625)"/>
       </defs>
       <use xlink:href="#Helvetica-4f"/>
       <use xlink:href="#Helvetica-74" x="77.783203"/>
       <use xlink:href="#Helvetica-68" x="105.566406"/>
       <use xlink:href="#Helvetica-65" x="161.181641"/>
       <use xlink:href="#Helvetica-72" x="216.796875"/>
      </g>
     </g>
    </g>
    <g id="xtick_3">
     <g id="line2d_5">
      <path d="M 312.412078 313.212437 
L 312.412078 21.636375 
" clip-path="url(#p8c82f24efc)" style="fill: none; stroke: #ffffff; stroke-linecap: square"/>
     </g>
     <g id="line2d_6">
      <path d="M 312.412078 313.212437 
" style="fill: none; stroke: #333333; stroke-width: 1.5; stroke-linecap: square"/>
      <g>
       <use xlink:href="#m077dc8bfa4" x="312.412078" y="313.212437" style="fill: #333333; stroke: #333333"/>
      </g>
     </g>
     <g id="text_3">
      <!-- nan -->
      <g style="fill: #4d4d4d" transform="translate(305.071641 324.275062) scale(0.088 -0.088)">
       <defs>
        <path id="Helvetica-6e" d="M 413 3347 
L 947 3347 
L 947 2872 
Q 1184 3166 1450 3294 
Q 1716 3422 2041 3422 
Q 2753 3422 3003 2925 
Q 3141 2653 3141 2147 
L 3141 0 
L 2569 0 
L 2569 2109 
Q 2569 2416 2478 2603 
Q 2328 2916 1934 2916 
Q 1734 2916 1606 2875 
Q 1375 2806 1200 2600 
Q 1059 2434 1017 2257 
Q 975 2081 975 1753 
L 975 0 
L 413 0 
L 413 3347 
z
M 1734 3428 
L 1734 3428 
z
" transform="scale(0.015625)"/>
        <path id="Helvetica-61" d="M 844 891 
Q 844 647 1022 506 
Q 1200 366 1444 366 
Q 1741 366 2019 503 
Q 2488 731 2488 1250 
L 2488 1703 
Q 2384 1638 2221 1594 
Q 2059 1550 1903 1531 
L 1563 1488 
Q 1256 1447 1103 1359 
Q 844 1213 844 891 
z
M 2206 2028 
Q 2400 2053 2466 2191 
Q 2503 2266 2503 2406 
Q 2503 2694 2298 2823 
Q 2094 2953 1713 2953 
Q 1272 2953 1088 2716 
Q 984 2584 953 2325 
L 428 2325 
Q 444 2944 830 3186 
Q 1216 3428 1725 3428 
Q 2316 3428 2684 3203 
Q 3050 2978 3050 2503 
L 3050 575 
Q 3050 488 3086 434 
Q 3122 381 3238 381 
Q 3275 381 3322 386 
Q 3369 391 3422 400 
L 3422 -16 
Q 3291 -53 3222 -62 
Q 3153 -72 3034 -72 
Q 2744 -72 2613 134 
Q 2544 244 2516 444 
Q 2344 219 2022 53 
Q 1700 -113 1313 -113 
Q 847 -113 551 170 
Q 256 453 256 878 
Q 256 1344 547 1600 
Q 838 1856 1309 1916 
L 2206 2028 
z
M 1741 3428 
L 1741 3428 
z
" transform="scale(0.015625)"/>
       </defs>
       <use xlink:href="#Helvetica-6e"/>
       <use xlink:href="#Helvetica-61" x="55.615234"/>
       <use xlink:href="#Helvetica-6e" x="111.230469"/>
      </g>
     </g>
    </g>
   </g>
   <g id="matplotlib.axis_2">
    <g id="ytick_1">
     <g id="line2d_7">
      <path d="M 41.404125 299.95898 
L 374.952375 299.95898 
" clip-path="url(#p8c82f24efc)" style="fill: none; stroke: #ffffff; stroke-linecap: square"/>
     </g>
     <g id="line2d_8">
      <path d="M 41.404125 299.95898 
" style="fill: none; stroke: #333333; stroke-width: 1.5; stroke-linecap: square"/>
      <defs>
       <path id="mfbb1e25062" d="M 0 0 
L -2.75 0 
" style="stroke: #333333"/>
      </defs>
      <g>
       <use xlink:href="#mfbb1e25062" x="41.404125" y="299.95898" style="fill: #333333; stroke: #333333"/>
      </g>
     </g>
     <g id="text_4">
      <!-- 0.00 -->
      <g style="fill: #4d4d4d" transform="translate(19.5285 303.115293) scale(0.088 -0.088)">
       <defs>
        <path id="Helvetica-30" d="M 1731 4475 
Q 2600 4475 2988 3759 
Q 3288 3206 3288 2244 
Q 3288 1331 3016 734 
Q 2622 -122 1728 -122 
Q 922 -122 528 578 
Q 200 1163 200 2147 
Q 200 2909 397 3456 
Q 766 4475 1731 4475 
z
M 1725 391 
Q 2163 391 2422 778 
Q 2681 1166 2681 2222 
Q 2681 2984 2493 3476 
Q 2306 3969 1766 3969 
Q 1269 3969 1039 3501 
Q 809 3034 809 2125 
Q 809 1441 956 1025 
Q 1181 391 1725 391 
z
" transform="scale(0.015625)"/>
        <path id="Helvetica-2e" d="M 547 681 
L 1200 681 
L 1200 0 
L 547 0 
L 547 681 
z
" transform="scale(0.015625)"/>
       </defs>
       <use xlink:href="#Helvetica-30"/>
       <use xlink:href="#Helvetica-2e" x="55.615234"/>
       <use xlink:href="#Helvetica-30" x="83.398438"/>
       <use xlink:href="#Helvetica-30" x="139.013672"/>
      </g>
     </g>
    </g>
    <g id="ytick_2">
     <g id="line2d_9">
      <path d="M 41.404125 235.518409 
L 374.952375 235.518409 
" clip-path="url(#p8c82f24efc)" style="fill: none; stroke: #ffffff; stroke-linecap: square"/>
     </g>
     <g id="line2d_10">
      <path d="M 41.404125 235.518409 
" style="fill: none; stroke: #333333; stroke-width: 1.5; stroke-linecap: square"/>
      <g>
       <use xlink:href="#mfbb1e25062" x="41.404125" y="235.518409" style="fill: #333333; stroke: #333333"/>
      </g>
     </g>
     <g id="text_5">
      <!-- 0.25 -->
      <g style="fill: #4d4d4d" transform="translate(19.5285 238.674721) scale(0.088 -0.088)">
       <defs>
        <path id="Helvetica-32" d="M 200 0 
Q 231 578 439 1006 
Q 647 1434 1250 1784 
L 1850 2131 
Q 2253 2366 2416 2531 
Q 2672 2791 2672 3125 
Q 2672 3516 2437 3745 
Q 2203 3975 1813 3975 
Q 1234 3975 1013 3538 
Q 894 3303 881 2888 
L 309 2888 
Q 319 3472 525 3841 
Q 891 4491 1816 4491 
Q 2584 4491 2939 4075 
Q 3294 3659 3294 3150 
Q 3294 2613 2916 2231 
Q 2697 2009 2131 1694 
L 1703 1456 
Q 1397 1288 1222 1134 
Q 909 863 828 531 
L 3272 531 
L 3272 0 
L 200 0 
z
" transform="scale(0.015625)"/>
        <path id="Helvetica-35" d="M 791 1141 
Q 847 659 1238 475 
Q 1438 381 1700 381 
Q 2200 381 2440 700 
Q 2681 1019 2681 1406 
Q 2681 1875 2395 2131 
Q 2109 2388 1709 2388 
Q 1419 2388 1211 2275 
Q 1003 2163 856 1963 
L 369 1991 
L 709 4400 
L 3034 4400 
L 3034 3856 
L 1131 3856 
L 941 2613 
Q 1097 2731 1238 2791 
Q 1488 2894 1816 2894 
Q 2431 2894 2859 2497 
Q 3288 2100 3288 1491 
Q 3288 856 2895 371 
Q 2503 -113 1644 -113 
Q 1097 -113 676 195 
Q 256 503 206 1141 
L 791 1141 
z
" transform="scale(0.015625)"/>
       </defs>
       <use xlink:href="#Helvetica-30"/>
       <use xlink:href="#Helvetica-2e" x="55.615234"/>
       <use xlink:href="#Helvetica-32" x="83.398438"/>
       <use xlink:href="#Helvetica-35" x="139.013672"/>
      </g>
     </g>
    </g>
    <g id="ytick_3">
     <g id="line2d_11">
      <path d="M 41.404125 171.077837 
L 374.952375 171.077837 
" clip-path="url(#p8c82f24efc)" style="fill: none; stroke: #ffffff; stroke-linecap: square"/>
     </g>
     <g id="line2d_12">
      <path d="M 41.404125 171.077837 
" style="fill: none; stroke: #333333; stroke-width: 1.5; stroke-linecap: square"/>
      <g>
       <use xlink:href="#mfbb1e25062" x="41.404125" y="171.077837" style="fill: #333333; stroke: #333333"/>
      </g>
     </g>
     <g id="text_6">
      <!-- 0.50 -->
      <g style="fill: #4d4d4d" transform="translate(19.5285 174.23415) scale(0.088 -0.088)">
       <use xlink:href="#Helvetica-30"/>
       <use xlink:href="#Helvetica-2e" x="55.615234"/>
       <use xlink:href="#Helvetica-35" x="83.398438"/>
       <use xlink:href="#Helvetica-30" x="139.013672"/>
      </g>
     </g>
    </g>
    <g id="ytick_4">
     <g id="line2d_13">
      <path d="M 41.404125 106.637266 
L 374.952375 106.637266 
" clip-path="url(#p8c82f24efc)" style="fill: none; stroke: #ffffff; stroke-linecap: square"/>
     </g>
     <g id="line2d_14">
      <path d="M 41.404125 106.637266 
" style="fill: none; stroke: #333333; stroke-width: 1.5; stroke-linecap: square"/>
      <g>
       <use xlink:href="#mfbb1e25062" x="41.404125" y="106.637266" style="fill: #333333; stroke: #333333"/>
      </g>
     </g>
     <g id="text_7">
      <!-- 0.75 -->
      <g style="fill: #4d4d4d" transform="translate(19.5285 109.793579) scale(0.088 -0.088)">
       <defs>
        <path id="Helvetica-37" d="M 3347 4400 
L 3347 3909 
Q 3131 3700 2773 3181 
Q 2416 2663 2141 2063 
Q 1869 1478 1728 997 
Q 1638 688 1494 0 
L 872 0 
Q 1084 1281 1809 2550 
Q 2238 3294 2709 3834 
L 234 3834 
L 234 4400 
L 3347 4400 
z
" transform="scale(0.015625)"/>
       </defs>
       <use xlink:href="#Helvetica-30"/>
       <use xlink:href="#Helvetica-2e" x="55.615234"/>
       <use xlink:href="#Helvetica-37" x="83.398438"/>
       <use xlink:href="#Helvetica-35" x="139.013672"/>
      </g>
     </g>
    </g>
    <g id="ytick_5">
     <g id="line2d_15">
      <path d="M 41.404125 42.196695 
L 374.952375 42.196695 
" clip-path="url(#p8c82f24efc)" style="fill: none; stroke: #ffffff; stroke-linecap: square"/>
     </g>
     <g id="line2d_16">
      <path d="M 41.404125 42.196695 
" style="fill: none; stroke: #333333; stroke-width: 1.5; stroke-linecap: square"/>
      <g>
       <use xlink:href="#mfbb1e25062" x="41.404125" y="42.196695" style="fill: #333333; stroke: #333333"/>
      </g>
     </g>
     <g id="text_8">
      <!-- 1.00 -->
      <g style="fill: #4d4d4d" transform="translate(19.5285 45.353007) scale(0.088 -0.088)">
       <defs>
        <path id="Helvetica-31" d="M 613 3169 
L 613 3600 
Q 1222 3659 1462 3798 
Q 1703 3938 1822 4456 
L 2266 4456 
L 2266 0 
L 1666 0 
L 1666 3169 
L 613 3169 
z
" transform="scale(0.015625)"/>
       </defs>
       <use xlink:href="#Helvetica-31"/>
       <use xlink:href="#Helvetica-2e" x="55.615234"/>
       <use xlink:href="#Helvetica-30" x="83.398438"/>
       <use xlink:href="#Helvetica-30" x="139.013672"/>
      </g>
     </g>
    </g>
    <g id="ytick_6">
     <g id="line2d_17">
      <path d="M 41.404125 267.738694 
L 374.952375 267.738694 
" clip-path="url(#p8c82f24efc)" style="fill: none; stroke: #ffffff; stroke-width: 0.5; stroke-linecap: square"/>
     </g>
    </g>
    <g id="ytick_7">
     <g id="line2d_18">
      <path d="M 41.404125 203.298123 
L 374.952375 203.298123 
" clip-path="url(#p8c82f24efc)" style="fill: none; stroke: #ffffff; stroke-width: 0.5; stroke-linecap: square"/>
     </g>
    </g>
    <g id="ytick_8">
     <g id="line2d_19">
      <path d="M 41.404125 138.857552 
L 374.952375 138.857552 
" clip-path="url(#p8c82f24efc)" style="fill: none; stroke: #ffffff; stroke-width: 0.5; stroke-linecap: square"/>
     </g>
    </g>
    <g id="ytick_9">
     <g id="line2d_20">
      <path d="M 41.404125 74.41698 
L 374.952375 74.41698 
" clip-path="url(#p8c82f24efc)" style="fill: none; stroke: #ffffff; stroke-width: 0.5; stroke-linecap: square"/>
     </g>
    </g>
   </g>
   <g id="PolyCollection_1">
    <path d="M 119.579496 299.95898 
L 119.579496 291.390642 
L 150.849645 291.390642 
L 150.849645 299.95898 
z
" clip-path="url(#p8c82f24efc)" style="fill: #5f57db"/>
    <path d="M 88.309348 299.95898 
L 88.309348 195.946448 
L 119.579496 195.946448 
L 119.579496 299.95898 
z
" clip-path="url(#p8c82f24efc)" style="fill: #57db5f"/>
    <path d="M 57.039199 299.95898 
L 57.039199 65.35171 
L 88.309348 65.35171 
L 88.309348 299.95898 
z
" clip-path="url(#p8c82f24efc)" style="fill: #db5f57"/>
    <path d="M 223.813324 299.95898 
L 223.813324 217.616729 
L 255.083473 217.616729 
L 255.083473 299.95898 
z
" clip-path="url(#p8c82f24efc)" style="fill: #5f57db"/>
    <path d="M 192.543176 299.95898 
L 192.543176 166.146908 
L 223.813324 166.146908 
L 223.813324 299.95898 
z
" clip-path="url(#p8c82f24efc)" style="fill: #57db5f"/>
    <path d="M 161.273027 299.95898 
L 161.273027 34.889832 
L 192.543176 34.889832 
L 192.543176 299.95898 
z
" clip-path="url(#p8c82f24efc)" style="fill: #db5f57"/>
    <path d="M 328.047152 299.95898 
L 328.047152 206.257488 
L 359.317301 206.257488 
L 359.317301 299.95898 
z
" clip-path="url(#p8c82f24efc)" style="fill: #5f57db"/>
    <path d="M 296.777004 299.95898 
L 296.777004 172.746828 
L 328.047152 172.746828 
L 328.047152 299.95898 
z
" clip-path="url(#p8c82f24efc)" style="fill: #57db5f"/>
    <path d="M 265.506855 299.95898 
L 265.506855 42.848837 
L 296.777004 42.848837 
L 296.777004 299.95898 
z
" clip-path="url(#p8c82f24efc)" style="fill: #db5f57"/>
   </g>
  </g>
  <g id="text_9">
   <!-- PPR by Funder Type and Demographic -->
   <g transform="translate(92.627719 14.107875) scale(0.132 -0.132)">
    <defs>
     <path id="Helvetica-50" d="M 547 4591 
L 2613 4591 
Q 3225 4591 3600 4245 
Q 3975 3900 3975 3275 
Q 3975 2738 3640 2339 
Q 3306 1941 2613 1941 
L 1169 1941 
L 1169 0 
L 547 0 
L 547 4591 
z
M 3347 3272 
Q 3347 3778 2972 3959 
Q 2766 4056 2406 4056 
L 1169 4056 
L 1169 2466 
L 2406 2466 
Q 2825 2466 3086 2644 
Q 3347 2822 3347 3272 
z
" transform="scale(0.015625)"/>
     <path id="Helvetica-52" d="M 2622 2488 
Q 3059 2488 3314 2663 
Q 3569 2838 3569 3294 
Q 3569 3784 3213 3963 
Q 3022 4056 2703 4056 
L 1184 4056 
L 1184 2488 
L 2622 2488 
z
M 563 4591 
L 2688 4591 
Q 3213 4591 3553 4438 
Q 4200 4144 4200 3353 
Q 4200 2941 4029 2678 
Q 3859 2416 3553 2256 
Q 3822 2147 3958 1969 
Q 4094 1791 4109 1391 
L 4131 775 
Q 4141 513 4175 384 
Q 4231 166 4375 103 
L 4375 0 
L 3613 0 
Q 3581 59 3562 153 
Q 3544 247 3531 516 
L 3494 1281 
Q 3472 1731 3159 1884 
Q 2981 1969 2600 1969 
L 1184 1969 
L 1184 0 
L 563 0 
L 563 4591 
z
" transform="scale(0.015625)"/>
     <path id="Helvetica-20" transform="scale(0.015625)"/>
     <path id="Helvetica-62" d="M 369 4606 
L 916 4606 
L 916 2941 
Q 1100 3181 1356 3307 
Q 1613 3434 1913 3434 
Q 2538 3434 2927 3004 
Q 3316 2575 3316 1738 
Q 3316 944 2931 419 
Q 2547 -106 1866 -106 
Q 1484 -106 1222 78 
Q 1066 188 888 428 
L 888 0 
L 369 0 
L 369 4606 
z
M 1831 391 
Q 2288 391 2514 753 
Q 2741 1116 2741 1709 
Q 2741 2238 2514 2584 
Q 2288 2931 1847 2931 
Q 1463 2931 1173 2647 
Q 884 2363 884 1709 
Q 884 1238 1003 944 
Q 1225 391 1831 391 
z
" transform="scale(0.015625)"/>
     <path id="Helvetica-79" d="M 2503 3347 
L 3125 3347 
Q 3006 3025 2597 1878 
Q 2291 1016 2084 472 
Q 1597 -809 1397 -1090 
Q 1197 -1372 709 -1372 
Q 591 -1372 527 -1362 
Q 463 -1353 369 -1328 
L 369 -816 
Q 516 -856 581 -865 
Q 647 -875 697 -875 
Q 853 -875 926 -823 
Q 1000 -772 1050 -697 
Q 1066 -672 1162 -440 
Q 1259 -209 1303 -97 
L 66 3347 
L 703 3347 
L 1600 622 
L 2503 3347 
z
M 1597 3428 
L 1597 3428 
z
" transform="scale(0.015625)"/>
     <path id="Helvetica-46" d="M 547 4591 
L 3731 4591 
L 3731 4028 
L 1169 4028 
L 1169 2634 
L 3422 2634 
L 3422 2088 
L 1169 2088 
L 1169 0 
L 547 0 
L 547 4591 
z
" transform="scale(0.015625)"/>
     <path id="Helvetica-75" d="M 975 3347 
L 975 1125 
Q 975 869 1056 706 
Q 1206 406 1616 406 
Q 2203 406 2416 931 
Q 2531 1213 2531 1703 
L 2531 3347 
L 3094 3347 
L 3094 0 
L 2563 0 
L 2569 494 
Q 2459 303 2297 172 
Q 1975 -91 1516 -91 
Q 800 -91 541 388 
Q 400 644 400 1072 
L 400 3347 
L 975 3347 
z
M 1747 3428 
L 1747 3428 
z
" transform="scale(0.015625)"/>
     <path id="Helvetica-64" d="M 769 1634 
Q 769 1097 997 734 
Q 1225 372 1728 372 
Q 2119 372 2370 708 
Q 2622 1044 2622 1672 
Q 2622 2306 2362 2611 
Q 2103 2916 1722 2916 
Q 1297 2916 1033 2591 
Q 769 2266 769 1634 
z
M 1616 3406 
Q 2000 3406 2259 3244 
Q 2409 3150 2600 2916 
L 2600 4606 
L 3141 4606 
L 3141 0 
L 2634 0 
L 2634 466 
Q 2438 156 2169 18 
Q 1900 -119 1553 -119 
Q 994 -119 584 351 
Q 175 822 175 1603 
Q 175 2334 548 2870 
Q 922 3406 1616 3406 
z
" transform="scale(0.015625)"/>
     <path id="Helvetica-54" d="M 3828 4591 
L 3828 4044 
L 2281 4044 
L 2281 0 
L 1650 0 
L 1650 4044 
L 103 4044 
L 103 4591 
L 3828 4591 
z
" transform="scale(0.015625)"/>
     <path id="Helvetica-70" d="M 1825 378 
Q 2219 378 2480 708 
Q 2741 1038 2741 1694 
Q 2741 2094 2625 2381 
Q 2406 2934 1825 2934 
Q 1241 2934 1025 2350 
Q 909 2038 909 1556 
Q 909 1169 1025 897 
Q 1244 378 1825 378 
z
M 369 3331 
L 916 3331 
L 916 2888 
Q 1084 3116 1284 3241 
Q 1569 3428 1953 3428 
Q 2522 3428 2919 2992 
Q 3316 2556 3316 1747 
Q 3316 653 2744 184 
Q 2381 -113 1900 -113 
Q 1522 -113 1266 53 
Q 1116 147 931 375 
L 931 -1334 
L 369 -1334 
L 369 3331 
z
" transform="scale(0.015625)"/>
     <path id="Helvetica-44" d="M 2250 531 
Q 2566 531 2769 597 
Q 3131 719 3363 1066 
Q 3547 1344 3628 1778 
Q 3675 2038 3675 2259 
Q 3675 3113 3336 3584 
Q 2997 4056 2244 4056 
L 1141 4056 
L 1141 531 
L 2250 531 
z
M 516 4591 
L 2375 4591 
Q 3322 4591 3844 3919 
Q 4309 3313 4309 2366 
Q 4309 1634 4034 1044 
Q 3550 0 2369 0 
L 516 0 
L 516 4591 
z
" transform="scale(0.015625)"/>
     <path id="Helvetica-6d" d="M 413 3347 
L 969 3347 
L 969 2872 
Q 1169 3119 1331 3231 
Q 1609 3422 1963 3422 
Q 2363 3422 2606 3225 
Q 2744 3113 2856 2894 
Q 3044 3163 3297 3292 
Q 3550 3422 3866 3422 
Q 4541 3422 4784 2934 
Q 4916 2672 4916 2228 
L 4916 0 
L 4331 0 
L 4331 2325 
Q 4331 2659 4164 2784 
Q 3997 2909 3756 2909 
Q 3425 2909 3186 2687 
Q 2947 2466 2947 1947 
L 2947 0 
L 2375 0 
L 2375 2184 
Q 2375 2525 2294 2681 
Q 2166 2916 1816 2916 
Q 1497 2916 1236 2669 
Q 975 2422 975 1775 
L 975 0 
L 413 0 
L 413 3347 
z
" transform="scale(0.015625)"/>
     <path id="Helvetica-6f" d="M 1741 363 
Q 2300 363 2508 786 
Q 2716 1209 2716 1728 
Q 2716 2197 2566 2491 
Q 2328 2953 1747 2953 
Q 1231 2953 997 2559 
Q 763 2166 763 1609 
Q 763 1075 997 719 
Q 1231 363 1741 363 
z
M 1763 3444 
Q 2409 3444 2856 3012 
Q 3303 2581 3303 1744 
Q 3303 934 2909 406 
Q 2516 -122 1688 -122 
Q 997 -122 590 345 
Q 184 813 184 1600 
Q 184 2444 612 2944 
Q 1041 3444 1763 3444 
z
M 1744 3428 
L 1744 3428 
z
" transform="scale(0.015625)"/>
     <path id="Helvetica-67" d="M 1594 3406 
Q 1988 3406 2281 3213 
Q 2441 3103 2606 2894 
L 2606 3316 
L 3125 3316 
L 3125 272 
Q 3125 -366 2938 -734 
Q 2588 -1416 1616 -1416 
Q 1075 -1416 706 -1173 
Q 338 -931 294 -416 
L 866 -416 
Q 906 -641 1028 -763 
Q 1219 -950 1628 -950 
Q 2275 -950 2475 -494 
Q 2594 -225 2584 466 
Q 2416 209 2178 84 
Q 1941 -41 1550 -41 
Q 1006 -41 598 345 
Q 191 731 191 1622 
Q 191 2463 602 2934 
Q 1013 3406 1594 3406 
z
M 2606 1688 
Q 2606 2309 2350 2609 
Q 2094 2909 1697 2909 
Q 1103 2909 884 2353 
Q 769 2056 769 1575 
Q 769 1009 998 714 
Q 1228 419 1616 419 
Q 2222 419 2469 966 
Q 2606 1275 2606 1688 
z
M 1659 3428 
L 1659 3428 
z
" transform="scale(0.015625)"/>
     <path id="Helvetica-69" d="M 413 3331 
L 984 3331 
L 984 0 
L 413 0 
L 413 3331 
z
M 413 4591 
L 984 4591 
L 984 3953 
L 413 3953 
L 413 4591 
z
" transform="scale(0.015625)"/>
     <path id="Helvetica-63" d="M 1703 3444 
Q 2269 3444 2623 3169 
Q 2978 2894 3050 2222 
L 2503 2222 
Q 2453 2531 2275 2736 
Q 2097 2941 1703 2941 
Q 1166 2941 934 2416 
Q 784 2075 784 1575 
Q 784 1072 996 728 
Q 1209 384 1666 384 
Q 2016 384 2220 598 
Q 2425 813 2503 1184 
L 3050 1184 
Q 2956 519 2581 211 
Q 2206 -97 1622 -97 
Q 966 -97 575 383 
Q 184 863 184 1581 
Q 184 2463 612 2953 
Q 1041 3444 1703 3444 
z
M 1616 3428 
L 1616 3428 
z
" transform="scale(0.015625)"/>
    </defs>
    <use xlink:href="#Helvetica-50"/>
    <use xlink:href="#Helvetica-50" x="66.699219"/>
    <use xlink:href="#Helvetica-52" x="133.398438"/>
    <use xlink:href="#Helvetica-20" x="205.615234"/>
    <use xlink:href="#Helvetica-62" x="233.398438"/>
    <use xlink:href="#Helvetica-79" x="289.013672"/>
    <use xlink:href="#Helvetica-20" x="339.013672"/>
    <use xlink:href="#Helvetica-46" x="366.796875"/>
    <use xlink:href="#Helvetica-75" x="427.880859"/>
    <use xlink:href="#Helvetica-6e" x="483.496094"/>
    <use xlink:href="#Helvetica-64" x="539.111328"/>
    <use xlink:href="#Helvetica-65" x="594.726562"/>
    <use xlink:href="#Helvetica-72" x="650.341797"/>
    <use xlink:href="#Helvetica-20" x="683.642578"/>
    <use xlink:href="#Helvetica-54" x="711.425781"/>
    <use xlink:href="#Helvetica-79" x="772.509766"/>
    <use xlink:href="#Helvetica-70" x="822.509766"/>
    <use xlink:href="#Helvetica-65" x="878.125"/>
    <use xlink:href="#Helvetica-20" x="933.740234"/>
    <use xlink:href="#Helvetica-61" x="961.523438"/>
    <use xlink:href="#Helvetica-6e" x="1017.138672"/>
    <use xlink:href="#Helvetica-64" x="1072.753906"/>
    <use xlink:href="#Helvetica-20" x="1128.369141"/>
    <use xlink:href="#Helvetica-44" x="1156.152344"/>
    <use xlink:href="#Helvetica-65" x="1228.369141"/>
    <use xlink:href="#Helvetica-6d" x="1283.984375"/>
    <use xlink:href="#Helvetica-6f" x="1367.285156"/>
    <use xlink:href="#Helvetica-67" x="1422.900391"/>
    <use xlink:href="#Helvetica-72" x="1478.515625"/>
    <use xlink:href="#Helvetica-61" x="1511.816406"/>
    <use xlink:href="#Helvetica-70" x="1567.431641"/>
    <use xlink:href="#Helvetica-68" x="1623.046875"/>
    <use xlink:href="#Helvetica-69" x="1678.662109"/>
    <use xlink:href="#Helvetica-63" x="1700.878906"/>
   </g>
  </g>
  <g id="text_10">
   <!-- Funder Type -->
   <g transform="translate(176.999266 338.633875) scale(0.11 -0.11)">
    <use xlink:href="#Helvetica-46"/>
    <use xlink:href="#Helvetica-75" x="61.083984"/>
    <use xlink:href="#Helvetica-6e" x="116.699219"/>
    <use xlink:href="#Helvetica-64" x="172.314453"/>
    <use xlink:href="#Helvetica-65" x="227.929688"/>
    <use xlink:href="#Helvetica-72" x="283.544922"/>
    <use xlink:href="#Helvetica-20" x="316.845703"/>
    <use xlink:href="#Helvetica-54" x="344.628906"/>
    <use xlink:href="#Helvetica-79" x="405.712891"/>
    <use xlink:href="#Helvetica-70" x="455.712891"/>
    <use xlink:href="#Helvetica-65" x="511.328125"/>
   </g>
  </g>
  <g id="text_11">
   <!-- Prevalence-to-Participation Ratio (PPR) -->
   <g transform="translate(12.627688 264.319797) rotate(-90) scale(0.11 -0.11)">
    <defs>
     <path id="Helvetica-76" d="M 688 3347 
L 1581 622 
L 2516 3347 
L 3131 3347 
L 1869 0 
L 1269 0 
L 34 3347 
L 688 3347 
z
" transform="scale(0.015625)"/>
     <path id="Helvetica-6c" d="M 428 4591 
L 991 4591 
L 991 0 
L 428 0 
L 428 4591 
z
" transform="scale(0.015625)"/>
     <path id="Helvetica-2d" d="M 266 2072 
L 1834 2072 
L 1834 1494 
L 266 1494 
L 266 2072 
z
" transform="scale(0.015625)"/>
     <path id="Helvetica-28" d="M 1894 4666 
Q 1403 3713 1256 3263 
Q 1034 2578 1034 1681 
Q 1034 775 1288 25 
Q 1444 -438 1903 -1306 
L 1525 -1306 
Q 1069 -594 959 -397 
Q 850 -200 722 138 
Q 547 600 478 1125 
Q 444 1397 444 1644 
Q 444 2569 734 3291 
Q 919 3750 1503 4666 
L 1894 4666 
z
" transform="scale(0.015625)"/>
     <path id="Helvetica-29" d="M 222 -1306 
Q 719 -338 863 106 
Q 1081 778 1081 1681 
Q 1081 2584 828 3334 
Q 672 3797 213 4666 
L 591 4666 
Q 1072 3897 1173 3717 
Q 1275 3538 1394 3222 
Q 1544 2831 1608 2450 
Q 1672 2069 1672 1716 
Q 1672 791 1378 66 
Q 1194 -400 613 -1306 
L 222 -1306 
z
" transform="scale(0.015625)"/>
    </defs>
    <use xlink:href="#Helvetica-50"/>
    <use xlink:href="#Helvetica-72" x="66.699219"/>
    <use xlink:href="#Helvetica-65" x="100"/>
    <use xlink:href="#Helvetica-76" x="155.615234"/>
    <use xlink:href="#Helvetica-61" x="205.615234"/>
    <use xlink:href="#Helvetica-6c" x="261.230469"/>
    <use xlink:href="#Helvetica-65" x="283.447266"/>
    <use xlink:href="#Helvetica-6e" x="339.0625"/>
    <use xlink:href="#Helvetica-63" x="394.677734"/>
    <use xlink:href="#Helvetica-65" x="444.677734"/>
    <use xlink:href="#Helvetica-2d" x="500.292969"/>
    <use xlink:href="#Helvetica-74" x="533.59375"/>
    <use xlink:href="#Helvetica-6f" x="561.376953"/>
    <use xlink:href="#Helvetica-2d" x="616.992188"/>
    <use xlink:href="#Helvetica-50" x="650.292969"/>
    <use xlink:href="#Helvetica-61" x="716.992188"/>
    <use xlink:href="#Helvetica-72" x="772.607422"/>
    <use xlink:href="#Helvetica-74" x="805.908203"/>
    <use xlink:href="#Helvetica-69" x="833.691406"/>
    <use xlink:href="#Helvetica-63" x="855.908203"/>
    <use xlink:href="#Helvetica-69" x="905.908203"/>
    <use xlink:href="#Helvetica-70" x="928.125"/>
    <use xlink:href="#Helvetica-61" x="983.740234"/>
    <use xlink:href="#Helvetica-74" x="1039.355469"/>
    <use xlink:href="#Helvetica-69" x="1067.138672"/>
    <use xlink:href="#Helvetica-6f" x="1089.355469"/>
    <use xlink:href="#Helvetica-6e" x="1144.970703"/>
    <use xlink:href="#Helvetica-20" x="1200.585938"/>
    <use xlink:href="#Helvetica-52" x="1228.369141"/>
    <use xlink:href="#Helvetica-61" x="1300.585938"/>
    <use xlink:href="#Helvetica-74" x="1356.201172"/>
    <use xlink:href="#Helvetica-69" x="1383.984375"/>
    <use xlink:href="#Helvetica-6f" x="1406.201172"/>
    <use xlink:href="#Helvetica-20" x="1461.816406"/>
    <use xlink:href="#Helvetica-28" x="1489.599609"/>
    <use xlink:href="#Helvetica-50" x="1522.900391"/>
    <use xlink:href="#Helvetica-50" x="1589.599609"/>
    <use xlink:href="#Helvetica-52" x="1656.298828"/>
    <use xlink:href="#Helvetica-29" x="1728.515625"/>
   </g>
  </g>
  <g id="patch_3">
   <path d="M 388.776375 200.511562 
L 456.192 200.511562 
L 456.192 134.33725 
L 388.776375 134.33725 
z
" style="fill: #ffffff"/>
  </g>
  <g id="text_12">
   <!-- Demographic -->
   <g transform="translate(389.776375 143.253812) scale(0.11 -0.11)">
    <use xlink:href="#Helvetica-44"/>
    <use xlink:href="#Helvetica-65" x="72.216797"/>
    <use xlink:href="#Helvetica-6d" x="127.832031"/>
    <use xlink:href="#Helvetica-6f" x="211.132812"/>
    <use xlink:href="#Helvetica-67" x="266.748047"/>
    <use xlink:href="#Helvetica-72" x="322.363281"/>
    <use xlink:href="#Helvetica-61" x="355.664062"/>
    <use xlink:href="#Helvetica-70" x="411.279297"/>
    <use xlink:href="#Helvetica-68" x="466.894531"/>
    <use xlink:href="#Helvetica-69" x="522.509766"/>
    <use xlink:href="#Helvetica-63" x="544.726562"/>
   </g>
  </g>
  <g id="patch_4">
   <path d="M 389.776375 163.831562 
L 405.616375 163.831562 
L 405.616375 147.991562 
L 389.776375 147.991562 
z
" clip-path="url(#p994a375d7d)" style="fill: #f2f2f2"/>
  </g>
  <g id="patch_5">
   <path d="M 389.776375 163.831562 
L 405.616375 163.831562 
L 405.616375 147.991562 
L 389.776375 147.991562 
z
" clip-path="url(#p994a375d7d)" style="fill: #db5f57"/>
  </g>
  <g id="text_13">
   <!-- Female -->
   <g transform="translate(407.920375 158.15075) scale(0.088 -0.088)">
    <use xlink:href="#Helvetica-46"/>
    <use xlink:href="#Helvetica-65" x="61.083984"/>
    <use xlink:href="#Helvetica-6d" x="116.699219"/>
    <use xlink:href="#Helvetica-61" x="200"/>
    <use xlink:href="#Helvetica-6c" x="255.615234"/>
    <use xlink:href="#Helvetica-65" x="277.832031"/>
   </g>
  </g>
  <g id="patch_6">
   <path d="M 389.776375 181.671562 
L 405.616375 181.671562 
L 405.616375 165.831562 
L 389.776375 165.831562 
z
" clip-path="url(#pf6dfb1d527)" style="fill: #f2f2f2"/>
  </g>
  <g id="patch_7">
   <path d="M 389.776375 181.671562 
L 405.616375 181.671562 
L 405.616375 165.831562 
L 389.776375 165.831562 
z
" clip-path="url(#pf6dfb1d527)" style="fill: #57db5f"/>
  </g>
  <g id="text_14">
   <!-- Hispanic -->
   <g transform="translate(407.920375 175.99075) scale(0.088 -0.088)">
    <defs>
     <path id="Helvetica-73" d="M 747 1050 
Q 772 769 888 619 
Q 1100 347 1625 347 
Q 1938 347 2175 483 
Q 2413 619 2413 903 
Q 2413 1119 2222 1231 
Q 2100 1300 1741 1391 
L 1294 1503 
Q 866 1609 663 1741 
Q 300 1969 300 2372 
Q 300 2847 642 3140 
Q 984 3434 1563 3434 
Q 2319 3434 2653 2991 
Q 2863 2709 2856 2384 
L 2325 2384 
Q 2309 2575 2191 2731 
Q 1997 2953 1519 2953 
Q 1200 2953 1036 2831 
Q 872 2709 872 2509 
Q 872 2291 1088 2159 
Q 1213 2081 1456 2022 
L 1828 1931 
Q 2434 1784 2641 1647 
Q 2969 1431 2969 969 
Q 2969 522 2630 197 
Q 2291 -128 1597 -128 
Q 850 -128 539 211 
Q 228 550 206 1050 
L 747 1050 
z
M 1578 3428 
L 1578 3428 
z
" transform="scale(0.015625)"/>
    </defs>
    <use xlink:href="#Helvetica-48"/>
    <use xlink:href="#Helvetica-69" x="72.216797"/>
    <use xlink:href="#Helvetica-73" x="94.433594"/>
    <use xlink:href="#Helvetica-70" x="144.433594"/>
    <use xlink:href="#Helvetica-61" x="200.048828"/>
    <use xlink:href="#Helvetica-6e" x="255.664062"/>
    <use xlink:href="#Helvetica-69" x="311.279297"/>
    <use xlink:href="#Helvetica-63" x="333.496094"/>
   </g>
  </g>
  <g id="patch_8">
   <path d="M 389.776375 199.511562 
L 405.616375 199.511562 
L 405.616375 183.671562 
L 389.776375 183.671562 
z
" clip-path="url(#pcf51f639f3)" style="fill: #f2f2f2"/>
  </g>
  <g id="patch_9">
   <path d="M 389.776375 199.511562 
L 405.616375 199.511562 
L 405.616375 183.671562 
L 389.776375 183.671562 
z
" clip-path="url(#pcf51f639f3)" style="fill: #5f57db"/>
  </g>
  <g id="text_15">
   <!-- Minority -->
   <g transform="translate(407.920375 193.804625) scale(0.088 -0.088)">
    <defs>
     <path id="Helvetica-4d" d="M 472 4591 
L 1363 4591 
L 2681 709 
L 3991 4591 
L 4872 4591 
L 4872 0 
L 4281 0 
L 4281 2709 
Q 4281 2850 4287 3175 
Q 4294 3500 4294 3872 
L 2984 0 
L 2369 0 
L 1050 3872 
L 1050 3731 
Q 1050 3563 1058 3217 
Q 1066 2872 1066 2709 
L 1066 0 
L 472 0 
L 472 4591 
z
" transform="scale(0.015625)"/>
    </defs>
    <use xlink:href="#Helvetica-4d"/>
    <use xlink:href="#Helvetica-69" x="83.300781"/>
    <use xlink:href="#Helvetica-6e" x="105.517578"/>
    <use xlink:href="#Helvetica-6f" x="161.132812"/>
    <use xlink:href="#Helvetica-72" x="216.748047"/>
    <use xlink:href="#Helvetica-69" x="250.048828"/>
    <use xlink:href="#Helvetica-74" x="272.265625"/>
    <use xlink:href="#Helvetica-79" x="300.048828"/>
   </g>
  </g>
 </g>
 <defs>
  <clipPath id="p8c82f24efc">
   <rect x="41.404125" y="21.636375" width="333.54825" height="291.576062"/>
  </clipPath>
  <clipPath id="p994a375d7d">
   <path d="M 389.776375 163.831562 
L 389.776375 147.991562 
L 405.616375 147.991562 
L 405.616375 163.831562 
"/>
  </clipPath>
  <clipPath id="pf6dfb1d527">
   <path d="M 389.776375 181.671562 
L 389.776375 165.831562 
L 405.616375 165.831562 
L 405.616375 181.671562 
"/>
  </clipPath>
  <clipPath id="pcf51f639f3">
   <path d="M 389.776375 199.511562 
L 389.776375 183.671562 
L 405.616375 183.671562 
L 405.616375 199.511562 
"/>
  </clipPath>
 </defs>
</svg>
